<svg width="49" height="47" viewBox="0 0 49 47" fill="none" xmlns="http://www.w3.org/2000/svg"><path d="M25.096 3.324L30.32 13.9a.59.59 0 0 0 .444.322l11.684 1.7a.59.59 0 0 1 .328 1.006l-8.455 8.233a.59.59 0 0 0-.17.522l1.996 11.625a.59.59 0 0 1-.856.622l-10.45-5.49a.59.59 0 0 0-.55 0l-10.45 5.49a.59.59 0 0 1-.857-.622l1.996-11.625a.588.588 0 0 0-.17-.522L6.36 16.925a.59.59 0 0 1 .327-1.006l11.685-1.696a.592.592 0 0 0 .444-.322l5.226-10.577a.59.59 0 0 1 1.054 0z" fill="#F3CC30" filter="url(#a)"/><path d="M24.775 5.798L20.07 14.91a1.576 1.576 0 0 1-1.257.846l-10.224.932 10.803.5a1.578 1.578 0 0 0 1.552-1.027l3.831-10.363z" fill="#F7DB5E"/><path d="M12.877 35.943l-.232 1.353a.6.6 0 0 0 .866.629l10.569-5.551a.602.602 0 0 1 .555 0l10.569 5.55a.601.601 0 0 0 .866-.628l-2.018-11.757a.599.599 0 0 1 .17-.528l8.551-8.326a.6.6 0 0 0-.33-1.017l-3.958-.575c-6.4 11.477-16.203 17.52-25.608 20.85z" fill="#EDBD31"/><defs><filter id="a" x=".182" y="0" width="48.773" height="46.998" filterUnits="userSpaceOnUse" color-interpolation-filters="sRGB"><feFlood flood-opacity="0" result="BackgroundImageFix"/><feColorMatrix in="SourceAlpha" values="0 0 0 0 0 0 0 0 0 0 0 0 0 0 0 0 0 0 127 0" result="hardAlpha"/><feOffset dy="3"/><feGaussianBlur stdDeviation="3"/><feColorMatrix values="0 0 0 0 0 0 0 0 0 0 0 0 0 0 0 0 0 0 0.22 0"/><feBlend in2="BackgroundImageFix" result="effect1_dropShadow_1_857"/><feBlend in="SourceGraphic" in2="effect1_dropShadow_1_857" result="shape"/></filter></defs></svg>